/* XPM */
static char *_d6c872e0fdf4da0a96a753290b48f45[] = {
/* columns rows colors chars-per-pixel */
"64 64 69 1 ",
"  c #7E6A46",
". c #7E6B49",
"X c #826B46",
"o c #896E46",
"O c #836D4A",
"+ c #8A6E49",
"@ c #897147",
"# c #86714D",
"$ c #8A734D",
"% c #8F784F",
"& c #91774F",
"* c #877351",
"= c #8C7551",
"- c #8E7852",
"; c #907651",
": c #937B54",
"> c #997E56",
", c #967E59",
"< c #997F59",
"1 c #978057",
"2 c #9A8256",
"3 c #9B835B",
"4 c #9F885E",
"5 c #A2865E",
"6 c #A2895E",
"7 c #9F8660",
"8 c #A28761",
"9 c #A48B63",
"0 c #AA8E65",
"q c #A68D68",
"w c #AA8F68",
"e c #A79066",
"r c #AC9166",
"t c #AD9269",
"y c #B09367",
"u c #B2956C",
"i c #B8976C",
"p c #B5996D",
"a c #B99B6E",
"s c #B39770",
"d c #B69A71",
"f c #BA9D73",
"g c #BF9F79",
"h c #BDA175",
"j c #BEA278",
"k c #C09F72",
"l c #C2A376",
"z c #C4A57A",
"x c #C8A77B",
"c c #C6A97B",
"v c #CAAB7D",
"b c #CFB17F",
"n c #C6AA81",
"m c #CDAE81",
"M c #D0AF82",
"N c #CEB183",
"B c #CFB389",
"V c #D3B385",
"C c #D9B687",
"Z c #D6B987",
"A c #DAB987",
"S c #D5B689",
"D c #D8B789",
"F c #D6B98B",
"G c #DABA8B",
"H c #D6BA91",
"J c #DDBC91",
"K c #E0BB8E",
"L c #DCC091",
/* pixels */
"DVmvkkkkiiiiiyiaaaallxxvNVZGCKCAZVvvclhfddpppiiiapddaflhllxbMNZG",
"GZbvxxxkxxxzxxcxccvvvcmMVCVGKACCAVVMbvvcxcmxxxxxllzxlxxxcxvMVVAG",
"GZbbmvvxxvmNVVbNVVNNVMVZVCCGAKKAACZMVVVVDDZVVZNNNvvvvxvvbbbMZZAA",
"GCMvmmmNVDFHHLGLGGDZCZCDGGCAAAKAACCCZGFDGFZZGHZBbNNNNNMvMVCCAAAA",
"GGVMNNVFJFZBNbnVVCJJGFDZCCCKAAAAKCCDGGDJVcapfzZHGAZbVVZVDMCDCAAA",
"GGZZZDGHBmhapyypaxvZGGFZGGGCAAACCCCDGJVnr52224tjVFHVVZZZDDDDAGKK",
"GDDZDGFNfprry0ryyyalNFGGGGGGACCCCKJGHBk8>&$$@-17ucSLGZZZDCJDJJGM",
"GDDDDFmdyyyyr0ee0rryfcVGGGGGKKKGGGHDMi5:*@@@###=16dNZGGGGGDDSBkt",
"GGDGGvaiyrtrrtryr00rrilvNZGJGGJGDFVzy2&&:<<>1-$@o&>0hcVBVVNchr2;",
"GJGCvlaiyipdiddddsuyr0ryxbVZGDAVMxp9>25ryppppe92&@o+:5rypy04-=@X",
"GAAbxiiaffzzznxxnnzjapyy0yihzzhii058rdjcNmNNNcchu5>@oo+@@$+o@@=%",
"GAbxlkkzmmVVVVSSVBBNmvzhipr000r90yfxnVSHHVVNZZZZFMhy5&$#@@$&&:26",
"AZbcvvMVDDDGHDJGGDGDZZVVccxcclccMMBZFBvjsuyyyahcmSHHBngtww80yypp",
"AAZVZZGGDDJGJDDDGGGDFZDDGGDZSVBSSSSNjde92<12249epfcNBFHHBBMmvccc",
"GGGGJGGGJDGCGVVMbbMNmmvvmVVZFZZZmchyt931-=*$--134epflnMVDDGGGGGJ",
"GGGGJGGDDSMmxxxxlxxxxzllxhzhhhfhpyye411##O  .#**126rpflxMMVCGGKG",
"GAGGGDVNmnllffiddddhhhhhdffapppuut972-$@OX ..OOO@-14qtdhzvbNVVGG",
"GGZZVmmxlfiutttrttwstuuudspppytte9921--#+**=OXOX.##1260yafzzxbMV",
"ZbNbxzfdutr00900000ttwttuttttteee471--%%,<<<,;;o.@.*;>460rpafzxc",
"xllhfdut008980rwttw0weetwtttwwr9e42122240twww8<;$#.@+=%,359wtypp",
"dppyy0895990qssssuuttttrw0wwwwwqq77334rpfczjfsw8-&@oO@#=%:224899",
"0999855569rtssdflgkfdutt0ww0wwq9q7799phcmVVVNnku92&=X####*-%::,1",
",,<2>5559rudfjjjzzlllkfuuyrtww9099qshjNVFGZDDDmxp03&:*$###*#=*==",
"-%::><59tphjcnmmmmmmvnlkdsytttr0yrpdjVSFDZDGGGCNlpr52:-;=**#$#@$",
"==:,270ydlzxmVZDVDVVNbvxlfapppyppplcZDVVBmmMMHJDMzit98<:,--*==&&",
"--:159tplxbNVZDGDGDDGFVvbclkhhdfllcZDNczkkfkzmBGVMxfpw9871,,:-%&",
",,17wufzvMVCGGVVvcccNZHFNNvxllljcbAFmkputtuyifvZGDMnkdst99774542",
"177quplvMGGZvlfyre60rhvZGZVmcbbNbZZvdr098w00trfvDDDNmxlissyr0600",
"7qypfhcBGDVhy042211112epNSFFBVBFHSvy5589wwww00tfmGGGVMmlzkfdiiyy",
"ssdfzmDGGcp0621-$#*-$@%29sNBFFFFVj03>550wtuttr0tfvGJJDVMmvxzllfl",
"hfzvmDGBcde4:**##... @*%-19pjNncu7:&>39ytuusutw0tfmSDGGGZVMMMmvm",
"vzvVVGDcu92-*** ....  @ X$%24944:-$:39tpddddssur0ufxSGGGGGCGSDVV",
"VZZFLBcd94;#OO.X  ..XX X XOX$==##*:39wddfllfddsttwtfzmVZGGJGGKGK",
"CDGSBnde7,$#OOOOOOOOXOOXX .X.. . =29tdlllxzlzldstwwtdhcVDDDDGKKA",
"GGSVnjr2-*+OO+*#+**+$$=###X#OXX#;,9udkzxxvvxxzlfdtw00ydgcmmVVCCC",
"GZNcht41==*+**$=;;:::,:,:%%-;-:,9tpjzxmNvbVbmxzlgiuwr0rydfhcvvmM",
"Mnzd052%&==&;;:,<,<<<77<447389qwiflvvMMVZVbbVVvvlgdpyw000tpsdffl",
"lgp04,%%=&%-,<<<778qq98w0ttussggzvmVVSCCAZZVVVMNcjhpputt09rrtryu",
"ur943,,1,1343880wwwwuusisifflnvmMVDZZAAZZZDDCVVVmczhfdustteeeee9",
"08423222255600tytssdddffzlzmNNVDDDGDGGGHGHGGJDZZVMmxzjddsustttrt",
"99996799q0ttuuddfkkklzxxcbNVVZDGGGDVBNbcccccBHHHVbVMvzzlffdduuyu",
"ttww0wwttsspdfklzlxxxnvMbZZAGDZVMvxkhdptpupphjBZGCMVMNmzxlfffdpp",
"ddddddffgfflzzxxnmmMNVCZZLZZZVvxhpsutteeeeeeesjnDZSVDSNmmmxjjhhh",
"zlhljjjzxxvxvmMbMCCVZDAZZGZbvchapsyweee4444eeeefzVGGGVDZMMmmvccj",
"xvvxcvvvmmmMNVVZZDDDDGZFNbvchppptee99474443444eedzmVGGFDZVVVbNbv",
"bNNMNVVZVVVGCDZAGGGDZDVVczhdppeee94444771433444eudjnBZGGCZDZZVVN",
"CVCVCCCCGGGZDAADJAZVMvzlhdpuueqq9443333111333444rwdjcvZZDDAZZZZZ",
"AACDDGGSGGGGGADCZNMvxlhfpprre949444433334311333499sdhcmNZADGGGGD",
"AAAACGGGGGDDZVMMvcjjhdpytte99944444343333333333379eydfzmmVGDGCGA",
"GAAKGGCCCVVMmvxxhhhpppyre9e9e4999474779994949947479euiffcmMVVCGA",
"DCGASVNmvvvxzlffpppprrreee9eqe9eee99eetttttttt0999790tsifxxvNVCD",
"ZZVNmmmmvzzhfaipuprtrrtrwwtwttttttsspdddddhdfdapsy9980tudflzvvMZ",
"mmnzzzzzffddpppyurrrttttyupuupupdddffjlzcccczzxzhfsuww00uuiflxxm",
"zlnjgfdiddsuyysytrpryypspdpddfhhhhjjlnNMBVVNVMbvnnngdstwwtuiafkz",
"ffddsssssututttttpupdddffhhjjjccccmmNNVDJHFFFFDDSBBnngsswuttusdf",
"stuwttttttttttstttpddhgjjcjcvvcvvvVBFFBDcjhjjjxmNNBBBmnduuttttts",
"00000wqq000wtttuuddfgjzzxxmmmmMBVVDGDmi08888888w0ypfjxnnfstwtwtt",
"855888q8800r0twt0tuudfzxmMBBVVVDGGDxu85<<<<<<<<755558tssgfst0999",
"<<88888q98989988858899tugznMBSDSMlt55<:&--=,:,:,&23334888wtwte97",
"<<<55<7773733<<<<,,<<2558wssgffit08<;;;;=*==***=%&&,<<<7<8784777",
"<<<3<,,<<,,:,:,:;;;;:::,,<388888<<:=;*##O#OO*O*#=$;;=,,<<<<<3331",
",:::<;;;;;==+*###O**###*=;::,,::=**OOOOO...OOOOO$#*=====-,,,11,,",
"**=*=*=#**OOXXOX..O.XOOOOOOOO#OOOO..O.......OXOOO*O#O***======-,",
"@OO.OO.OO...XXX .....O. ...XXXXO.O........  XXX.OO..O.OOOOOO*O*."
};
